<?xml version="1.0" standalone="no"?>
<!DOCTYPE svg PUBLIC "-//W3C//DTD SVG 20010904//EN"
 "http://www.w3.org/TR/2001/REC-SVG-20010904/DTD/svg10.dtd">
<svg version="1.0" xmlns="http://www.w3.org/2000/svg"
 width="625.000000pt" height="625.000000pt" viewBox="0 0 625.000000 625.000000"
 preserveAspectRatio="xMidYMid meet">
<metadata>
Created by potrace 1.14, written by Peter Selinger 2001-2017
</metadata>
<g transform="translate(0.000000,625.000000) scale(0.100000,-0.100000)"
fill="#000000" stroke="none">
<path d="M3949 6216 c-21 -16 -44 -55 -58 -98 -7 -21 -17 -38 -22 -38 -14 0
-11 28 4 33 9 4 9 7 0 14 -9 6 -10 18 -4 40 8 28 7 32 -16 38 -27 6 -53 -9
-53 -31 0 -25 -21 -25 -41 0 -28 36 -58 34 -65 -4 -6 -26 -9 -28 -26 -19 -36
20 -49 4 -42 -50 7 -54 -3 -69 -35 -49 -16 10 -23 10 -33 0 -9 -9 -8 -15 7
-26 11 -8 24 -12 28 -9 5 3 7 -3 4 -13 -16 -54 -19 -74 -8 -74 6 0 11 5 11 12
0 6 2 9 5 6 3 -2 -2 -27 -10 -54 -20 -68 -20 -69 25 -87 29 -11 38 -20 34 -31
-3 -9 -12 -16 -20 -16 -9 0 -14 -11 -14 -29 0 -17 -5 -33 -11 -37 -12 -7 -9
35 6 69 6 13 2 17 -18 17 -21 0 -25 -5 -30 -42 -3 -24 -3 -63 0 -87 6 -42 5
-44 -16 -38 -24 6 -26 3 -36 -57 -5 -32 -4 -38 9 -33 13 5 15 -1 10 -41 -3
-26 -10 -63 -15 -82 -12 -47 -11 -90 1 -90 6 0 10 6 10 14 0 8 4 17 9 20 4 3
6 -6 3 -19 -2 -15 0 -25 7 -25 6 0 11 5 11 10 0 6 5 10 10 10 15 0 12 -19 -9
-48 -22 -32 -39 -107 -46 -205 -3 -40 -8 -83 -11 -95 -3 -15 -1 -21 6 -17 17
10 11 -11 -10 -38 -11 -14 -20 -30 -20 -36 0 -6 -19 -25 -42 -42 -24 -17 -42
-37 -40 -45 4 -19 -14 -18 -22 2 -3 9 -6 29 -6 46 0 38 -25 137 -45 174 -28
55 -84 102 -146 123 -51 17 -79 20 -185 16 -136 -4 -137 -4 -220 -76 -100 -85
-137 -193 -112 -325 7 -39 14 -59 18 -49 5 15 8 15 30 -3 14 -11 26 -31 27
-44 8 -122 13 -150 33 -178 12 -17 26 -28 31 -25 5 4 9 0 9 -9 0 -8 -5 -16
-10 -18 -15 -5 8 -68 24 -68 7 0 28 -21 47 -47 53 -72 53 -72 26 -82 -16 -6
-26 -20 -30 -40 -4 -17 -22 -47 -42 -68 -21 -22 -34 -45 -32 -55 3 -9 -1 -19
-9 -22 -10 -4 -14 -25 -14 -74 0 -42 -8 -92 -20 -128 -27 -80 -25 -97 6 -49
19 30 24 33 19 15 -4 -14 -11 -45 -16 -70 -5 -25 -14 -53 -19 -62 -20 -35 -7
-139 22 -183 4 -6 -5 -33 -19 -60 -23 -45 -23 -48 -4 -31 36 33 23 5 -15 -32
-24 -24 -34 -41 -31 -54 3 -11 1 -33 -5 -49 -5 -16 -7 -37 -2 -47 4 -9 6 -20
6 -24 -1 -5 2 -8 8 -8 16 0 12 -58 -6 -93 -9 -18 -28 -45 -41 -61 -43 -51 -73
-126 -73 -180 0 -28 -5 -70 -10 -92 -10 -43 -21 -130 -24 -199 -3 -50 -14 -85
-27 -85 -6 0 -7 -4 -4 -10 3 -5 1 -10 -6 -10 -7 0 -5 -6 5 -13 15 -11 16 -18
8 -33 -6 -11 -7 -36 -3 -61 7 -35 4 -47 -18 -82 -14 -22 -31 -40 -36 -41 -16
0 -106 -94 -109 -113 -1 -8 -8 -22 -15 -31 -19 -23 -6 -32 28 -20 23 9 30 8
45 -10 18 -21 18 -21 13 8 -4 22 0 30 14 33 11 3 19 11 19 18 0 7 5 15 12 17
20 7 68 -22 67 -40 0 -11 -2 -12 -6 -4 -8 21 -23 13 -23 -13 0 -14 5 -25 10
-25 6 0 10 5 10 10 0 6 5 10 11 10 14 0 39 25 39 39 0 6 -4 11 -9 11 -5 0 -13
9 -16 21 -5 13 -12 18 -22 14 -13 -4 -14 -3 -3 10 17 20 27 19 35 -5 9 -30 34
-50 59 -50 34 0 48 -21 30 -44 -8 -11 -14 -14 -14 -8 0 14 -33 16 -58 3 -9 -5
-31 -14 -48 -21 -31 -11 -64 -55 -64 -86 0 -14 -3 -15 -12 -6 -18 18 -23 16
-65 -23 -39 -36 -80 -48 -69 -20 3 8 2 15 -3 15 -5 0 -11 9 -14 21 -4 14 -1
19 7 16 7 -3 17 7 23 23 9 24 8 29 -7 33 -11 3 -17 -1 -16 -11 0 -8 -5 -17
-11 -19 -7 -3 -13 2 -13 10 0 9 -10 19 -22 23 -37 12 -48 13 -48 2 0 -12 -77
-3 -95 11 -5 5 -36 14 -67 21 -32 7 -55 17 -52 21 3 5 -5 5 -17 1 -15 -6 -41
-1 -83 16 -65 26 -87 39 -46 27 102 -28 28 12 -100 55 -155 52 -204 60 -358
60 -127 0 -152 -3 -219 -25 -91 -31 -150 -70 -187 -123 -66 -96 -61 -244 15
-395 43 -85 71 -121 153 -200 119 -114 275 -177 406 -163 142 14 193 26 218
51 14 14 20 25 13 25 -17 0 -13 31 6 47 16 12 10 13 -47 8 -36 -4 -85 -11
-109 -16 -30 -7 -48 -6 -55 1 -5 5 -8 10 -5 11 2 0 24 2 49 3 25 2 70 10 100
19 64 20 100 15 154 -20 38 -25 39 -25 64 -6 14 10 37 34 51 53 21 27 22 32 8
27 -20 -7 -16 3 12 38 16 19 15 19 -11 2 -15 -9 -29 -13 -33 -8 -9 15 7 43 21
37 8 -3 15 6 19 25 4 16 11 29 17 29 6 0 8 -7 5 -15 -4 -8 -2 -17 3 -20 12 -7
94 101 86 114 -10 16 84 195 96 183 7 -7 1 -25 -21 -57 -17 -25 -38 -60 -46
-78 -8 -18 -10 -24 -3 -13 53 77 70 96 88 96 21 0 28 16 9 22 -17 6 7 48 27
48 8 0 20 -13 25 -30 6 -16 17 -30 25 -30 15 0 19 -12 7 -23 -3 -4 -12 -2 -19
4 -17 14 -54 2 -54 -17 0 -13 20 -18 73 -17 9 0 17 -4 17 -9 0 -15 18 -8 41
17 29 30 53 32 71 6 9 -12 19 -17 27 -12 9 6 7 10 -8 14 -32 8 -27 37 7 37 29
0 78 40 65 53 -3 4 -1 7 5 7 7 0 12 7 12 15 0 8 5 15 11 15 6 0 9 7 5 15 -4
10 1 15 14 15 10 0 24 8 29 18 6 9 11 11 11 5 0 -26 20 -12 20 15 0 19 3 23 9
13 5 -7 14 -12 21 -9 9 3 8 8 -4 21 -12 12 -14 22 -8 34 11 19 -11 49 -28 38
-5 -3 -10 3 -10 14 0 12 -5 21 -11 21 -5 0 -7 5 -3 12 5 7 1 9 -13 6 -40 -11
-74 32 -37 46 8 3 13 10 9 15 -9 16 9 20 38 8 15 -7 35 -28 46 -47 10 -19 22
-34 27 -32 11 3 12 41 2 64 -5 9 -4 20 2 23 5 3 10 1 10 -5 0 -27 40 14 51 53
7 23 19 50 27 59 8 9 11 21 7 27 -3 6 -2 27 4 46 7 26 6 35 -3 35 -17 0 -48
-40 -42 -55 8 -21 -17 -34 -62 -32 -23 1 -41 4 -39 7 2 3 10 20 17 38 14 31
40 44 40 20 1 -18 39 64 40 83 0 9 7 22 15 29 13 10 19 10 34 -4 13 -12 21
-14 26 -6 5 8 11 6 20 -7 11 -15 15 -16 30 -3 10 8 28 13 41 12 13 -2 24 1 24
7 0 6 7 8 16 4 10 -4 20 0 26 10 5 10 21 17 37 17 16 0 31 7 35 15 4 10 20 15
50 15 63 0 77 -7 66 -34 -5 -13 -4 -29 1 -37 5 -8 9 -9 10 -4 0 6 4 1 9 -10 8
-19 9 -19 9 4 1 16 5 21 16 17 11 -4 15 2 15 26 0 18 11 48 26 70 22 31 24 40
14 53 -7 9 -10 19 -6 23 4 4 13 -1 20 -11 13 -17 36 -24 36 -9 0 4 -13 21 -28
38 -29 33 -52 34 -52 3 0 -26 -9 -24 -46 12 -29 28 -31 34 -22 60 5 16 16 29
23 29 7 0 20 3 29 6 11 4 16 1 16 -10 0 -9 6 -16 14 -16 8 0 16 -7 20 -15 3
-8 15 -15 27 -15 11 0 33 -9 47 -20 66 -50 86 -66 111 -88 25 -23 25 -24 6
-38 -27 -20 -33 -18 -68 21 -17 19 -34 35 -37 35 -4 0 -13 -12 -20 -27 -7 -16
-15 -23 -17 -15 -7 18 -40 15 -45 -5 -2 -10 -1 -36 2 -58 3 -22 2 -52 -3 -68
-6 -19 -5 -32 4 -43 15 -18 29 -3 29 33 0 16 5 20 20 16 12 -3 20 0 20 7 0 8
21 10 75 7 60 -4 75 -3 75 9 0 8 -7 14 -15 14 -20 0 -19 7 5 32 15 16 17 24 8
29 -9 6 -8 12 4 26 11 12 14 29 11 52 -6 39 9 54 47 46 14 -3 38 2 54 10 16 8
46 18 67 21 35 6 37 8 22 20 -19 14 -16 16 35 27 26 6 59 -30 42 -47 -16 -16
-12 -46 6 -46 9 0 23 8 30 18 7 9 16 17 21 18 20 1 72 41 77 58 4 16 8 17 20
7 17 -14 28 -1 16 19 -6 9 -4 20 5 30 13 14 13 19 -1 38 -8 12 -22 22 -30 22
-16 0 -20 26 -4 32 5 2 7 13 4 25 -4 13 -10 20 -15 18 -4 -3 -7 8 -6 24 1 16
6 27 10 24 5 -3 6 -12 3 -20 -5 -12 -1 -14 18 -9 14 3 28 2 31 -4 10 -16 21
-12 34 13 7 13 25 31 40 40 27 16 28 15 45 -14 11 -18 24 -28 32 -25 18 7 30
-14 13 -25 -11 -6 -10 -9 4 -15 9 -3 15 -10 12 -14 -3 -5 -2 -15 1 -24 9 -24
48 -1 41 25 -8 29 15 71 35 65 10 -2 22 2 29 10 6 8 19 14 28 14 9 0 23 6 30
13 10 10 11 6 6 -18 -4 -16 -18 -39 -32 -51 -20 -17 -23 -27 -19 -60 2 -21 5
-49 5 -62 1 -14 10 -26 24 -31 21 -8 20 -9 -15 -26 -32 -16 -35 -20 -21 -30 9
-7 13 -17 9 -23 -9 -15 -36 -16 -36 -2 0 6 -11 10 -24 10 -14 0 -28 -4 -31
-10 -3 -5 -1 -10 5 -10 7 0 10 -7 6 -15 -3 -9 3 -23 14 -32 11 -10 20 -25 20
-34 0 -36 11 -49 36 -43 13 4 24 2 24 -4 0 -12 -29 -24 -41 -16 -5 3 -9 0 -9
-5 0 -6 5 -11 12 -11 9 0 9 -3 0 -12 -7 -7 -12 -22 -12 -34 0 -12 -6 -24 -14
-27 -7 -3 -16 -24 -20 -46 -3 -23 -16 -51 -27 -62 -20 -20 -23 -20 -31 -5 -14
25 -41 21 -33 -5 5 -15 4 -19 -4 -15 -6 4 -11 0 -11 -9 0 -8 7 -18 15 -21 8
-4 12 -10 9 -15 -3 -5 2 -9 11 -9 22 0 29 -24 15 -50 -17 -31 3 -50 28 -27 10
9 28 17 40 17 12 0 22 5 22 10 0 6 5 10 11 10 6 0 8 -7 5 -16 -8 -21 12 -57
29 -50 10 3 26 -18 51 -65 39 -74 107 -152 142 -163 11 -4 35 -29 52 -56 31
-49 37 -53 96 -65 18 -3 40 -15 50 -26 19 -22 13 -24 -19 -7 -14 7 -6 -6 21
-37 23 -26 42 -55 42 -64 -1 -59 132 -228 213 -271 l44 -23 45 21 c51 25 68
55 67 115 0 23 -3 36 -6 29 -2 -6 -9 -9 -15 -6 -7 4 -9 -6 -6 -30 4 -38 2 -41
-22 -26 -10 6 -11 10 -2 10 23 0 12 28 -14 34 -20 5 -24 10 -15 19 16 16 13
39 -9 66 -17 19 -23 21 -36 11 -8 -7 -13 -19 -10 -26 3 -7 1 -16 -3 -19 -14
-8 -21 38 -8 54 10 12 8 13 -15 7 -17 -4 -28 -2 -28 3 0 6 -22 9 -50 7 -56 -3
-60 3 -39 62 13 38 29 33 29 -9 0 -18 4 -28 10 -24 6 3 10 13 10 21 0 8 9 24
20 36 21 23 27 72 10 83 -5 3 -20 -1 -34 -10 -31 -21 -42 -5 -26 36 13 31 30
39 30 13 0 -14 3 -14 15 -4 12 10 15 10 15 0 0 -8 3 -11 6 -8 3 4 -2 20 -10
37 -19 35 -21 55 -5 45 7 -4 10 -2 8 5 -8 24 -24 16 -30 -14 l-6 -30 -12 30
c-6 17 -14 37 -17 45 -6 13 -7 13 -13 0 -3 -8 -13 -15 -21 -15 -8 0 -19 -10
-25 -23 -9 -20 -15 -22 -45 -17 -46 9 -48 11 -21 36 12 12 27 33 32 47 8 21
12 23 19 12 8 -13 10 -13 10 1 0 9 7 22 15 29 18 15 19 41 4 93 -6 22 -16 37
-26 37 -11 0 -14 6 -8 23 18 58 16 80 -20 184 -21 59 -42 116 -47 126 -5 10
-11 26 -13 35 -2 9 -14 36 -28 60 -24 43 -25 43 -31 18 -3 -14 -12 -26 -20
-26 -16 0 -15 -56 2 -87 16 -28 15 -33 -3 -33 -8 0 -14 -3 -14 -7 4 -25 -5
-29 -63 -26 -82 5 -108 11 -108 24 0 7 6 6 16 -2 15 -12 16 -11 9 11 -4 14
-14 29 -22 33 -9 6 -12 16 -7 30 9 30 11 32 29 17 12 -10 19 -10 27 -2 7 7 34
12 60 12 28 0 48 5 48 11 0 7 -11 8 -31 4 -24 -5 -30 -4 -27 6 2 7 22 17 43
21 40 9 58 25 48 42 -3 5 -12 1 -20 -9 -9 -13 -28 -20 -65 -22 -36 -2 -48 0
-38 7 8 5 11 12 7 16 -4 4 -13 2 -19 -4 -15 -15 -28 -16 -28 -2 0 6 7 10 15
10 8 0 15 7 15 15 0 19 -19 19 -43 1 -17 -13 -16 -16 13 -47 24 -27 27 -35 15
-37 -9 -2 -22 1 -29 7 -10 8 -17 7 -26 -4 -11 -14 -15 -14 -30 0 -13 12 -19
12 -29 2 -11 -10 -12 -8 -6 10 5 18 3 22 -9 17 -22 -8 -66 4 -66 18 0 9 3 9
12 0 23 -23 37 -14 25 17 -6 16 -7 36 -2 47 5 10 9 24 10 31 1 23 49 55 75 50
21 -5 25 -2 26 20 1 13 14 38 30 54 22 23 34 28 66 26 25 -2 38 1 38 9 0 7 -4
15 -9 18 -5 3 -12 21 -15 40 -6 33 -8 34 -44 29 -26 -3 -33 -2 -23 5 8 6 11
17 8 26 -4 9 -1 16 5 16 15 0 1 80 -17 101 -8 8 -15 25 -15 36 0 11 -7 26 -15
33 -8 7 -15 23 -15 37 0 14 -12 34 -27 48 -32 29 -63 28 -177 -1 -21 -5 -27
-4 -22 5 4 6 14 11 22 11 16 0 19 16 4 25 -5 3 -6 13 -3 22 5 13 3 15 -13 9
-10 -5 -46 -10 -79 -13 l-60 -4 23 21 c13 12 29 19 37 16 9 -3 12 0 9 8 -9 23
12 27 31 6 9 -10 22 -17 28 -15 44 13 79 14 74 2 -3 -8 3 -14 14 -14 13 -1 19
4 17 14 -2 11 6 19 21 23 20 5 26 15 37 65 7 33 17 73 23 88 18 45 13 72 -19
108 -29 33 -29 34 -44 14 -8 -11 -13 -28 -10 -38 5 -15 1 -17 -19 -12 -14 4
-28 2 -31 -4 -4 -6 -16 -11 -27 -11 -19 0 -24 15 -13 44 5 13 9 14 20 5 15
-13 27 -7 30 15 5 35 16 54 39 66 20 10 25 21 25 49 0 43 -18 111 -29 111 -22
0 -46 38 -47 73 -1 43 3 46 15 15 7 -19 9 -17 9 15 0 29 -3 37 -14 33 -8 -3
-14 -1 -14 4 0 6 5 10 10 10 16 0 11 29 -9 49 -10 10 -21 25 -24 32 -4 10 -6
9 -6 -4 -1 -9 -5 -16 -10 -15 -4 2 -18 -8 -30 -22 -22 -24 -22 -24 -18 -3 3
13 -1 24 -9 27 -19 7 -18 26 1 26 18 0 19 9 5 44 -7 20 -16 26 -40 26 -16 0
-30 5 -30 10 0 6 5 10 11 10 6 0 9 8 7 18 -2 11 -13 17 -33 17 -20 0 -33 7
-41 23 -16 32 -24 38 -17 13 3 -12 1 -21 -6 -21 -6 0 -11 7 -11 15 0 8 -4 15
-10 15 -5 0 -10 -7 -10 -15 0 -18 -12 -19 -28 -3 -15 15 -16 32 -2 23 18 -11
11 4 -12 24 -16 16 -19 23 -9 34 6 8 9 21 5 30 -3 8 -1 18 5 22 6 3 11 1 11
-6 0 -7 3 -10 6 -6 3 3 3 10 0 16 -10 15 -86 -19 -86 -39 0 -10 -7 -20 -15
-24 -21 -8 -19 2 10 40 16 21 25 46 25 68 0 20 4 36 9 36 5 0 15 16 22 35 9
23 22 38 36 41 19 5 21 9 12 20 -9 11 -8 14 1 14 10 0 10 3 0 15 -10 13 -10
19 4 33 9 10 16 27 16 38 0 11 6 26 12 32 10 10 10 15 -2 22 -12 8 -11 12 7
29 15 14 23 17 26 8 2 -7 9 -3 16 11 10 18 9 22 -4 22 -17 0 -35 38 -35 76 0
13 -4 24 -8 24 -5 0 -8 -10 -8 -22 1 -17 -5 -24 -21 -26 -25 -4 -31 13 -9 21
20 8 24 49 6 70 -18 21 -34 23 -26 2 7 -19 -21 -34 -62 -33 -28 1 -32 5 -38
35 -3 18 -15 40 -26 47 -14 10 -16 15 -6 18 7 3 4 7 -9 10 -15 4 -20 2 -17 -7
3 -7 -4 -15 -15 -18 -12 -3 -19 0 -18 6 1 5 -9 14 -23 18 -21 6 -22 7 -5 9 17
2 16 3 -5 9 -22 6 -19 8 22 15 59 9 69 23 29 39 -35 13 -41 27 -11 27 11 0 20
-4 20 -10 0 -5 5 -10 11 -10 6 0 7 5 2 13 -4 6 -6 20 -5 29 2 9 -6 22 -17 28
-12 6 -21 17 -21 25 0 7 -6 16 -12 18 -7 3 -4 6 6 6 11 1 32 -14 48 -31 15
-18 25 -25 22 -15 -7 20 6 23 24 5 9 -9 12 -2 12 35 0 33 -5 49 -17 56 -10 6
-12 11 -5 11 6 0 12 6 12 14 0 8 5 16 11 18 7 2 13 16 15 30 2 21 -2 28 -19
31 -22 4 -22 4 1 6 18 1 22 7 22 35 0 19 -4 38 -10 41 -5 3 -10 14 -10 24 0
10 -12 31 -27 46 -29 28 -33 75 -11 103 14 16 5 25 -27 25 -14 0 -25 3 -25 8
0 5 11 9 25 9 21 0 25 5 25 29 0 30 22 61 44 61 32 0 116 109 116 152 0 10 11
40 25 66 39 74 29 153 -16 118z m-199 -1016 c13 -9 13 -10 0 -9 -8 0 -24 4
-35 9 l-20 9 20 0 c11 0 27 -4 35 -9z m-219 -107 c-12 -20 -14 -14 -5 12 4 9
9 14 11 11 3 -2 0 -13 -6 -23z m29 -63 c-24 -15 -37 -11 -16 5 11 8 22 12 25
9 3 -3 -1 -9 -9 -14z m-154 -318 c-9 -8 -26 10 -26 26 1 15 2 15 15 -2 8 -11
13 -21 11 -24z m167 21 c-7 -2 -19 -2 -25 0 -7 3 -2 5 12 5 14 0 19 -2 13 -5z
m50 -10 c-7 -2 -19 -2 -25 0 -7 3 -2 5 12 5 14 0 19 -2 13 -5z m102 -43 c1
-25 -4 -40 -11 -40 -8 0 -11 12 -9 34 3 33 1 35 -34 39 -34 3 -33 4 9 5 l45 2
0 -40z m-442 -108 c10 -49 -1 -91 -24 -89 -20 1 -24 9 -11 21 11 11 11 79 0
93 -5 7 -7 17 -3 23 10 16 30 -10 38 -48z m147 13 c0 -5 -5 -3 -10 5 -5 8 -10
20 -10 25 0 6 5 3 10 -5 5 -8 10 -19 10 -25z m-572 -8 c2 -10 -4 -20 -13 -23
-21 -9 -28 0 -20 26 8 24 28 22 33 -3z m-21 -53 c-3 -3 -12 -4 -19 -1 -8 3 -5
6 6 6 11 1 17 -2 13 -5z m560 0 c-3 -3 -12 -4 -19 -1 -8 3 -5 6 6 6 11 1 17
-2 13 -5z m310 -26 c-3 -8 -6 -5 -6 6 -1 11 2 17 5 13 3 -3 4 -12 1 -19z
m-802 2 c3 -5 0 -10 -9 -10 -8 0 -16 -5 -18 -12 -2 -6 -9 -8 -16 -4 -9 5 -9
10 1 21 14 17 33 19 42 5z m-68 -16 c-3 -3 -12 -4 -19 -1 -8 3 -5 6 6 6 11 1
17 -2 13 -5z m523 -61 c0 -21 -3 -24 -9 -14 -5 8 -7 20 -4 28 8 21 13 15 13
-14z m76 18 c-3 -5 -15 -7 -26 -4 -28 7 -25 13 6 13 14 0 23 -4 20 -9z m-493
-150 c-11 -14 -19 21 -14 64 l5 50 6 -55 c4 -30 5 -57 3 -59z m691 44 c-5 -28
-3 -35 9 -35 14 0 14 -3 1 -27 -7 -16 -14 -36 -14 -46 0 -14 5 -16 28 -11 24
7 26 6 13 -9 -7 -9 -11 -24 -7 -32 7 -20 -4 -19 -20 3 -11 15 -14 15 -27 2
-19 -19 -33 -105 -16 -94 9 5 10 -3 5 -30 l-7 -37 25 17 c14 9 27 19 27 23 1
3 3 21 5 40 5 39 22 55 42 39 10 -9 14 -6 19 10 8 32 20 27 33 -14 10 -30 10
-38 -1 -46 -11 -7 -9 -8 6 -6 14 2 19 -2 17 -14 -4 -24 24 -23 88 2 61 24 60
24 61 3 1 -17 2 -17 6 0 2 9 11 17 19 17 8 0 17 7 20 15 4 8 12 15 19 15 7 0
16 6 19 13 3 6 3 0 -1 -16 -3 -15 -18 -41 -34 -58 -16 -17 -29 -35 -29 -39 0
-4 -7 -10 -15 -14 -12 -4 -14 0 -9 19 8 31 -13 33 -46 5 -13 -11 -31 -20 -41
-20 -16 0 -17 -3 -7 -25 6 -14 15 -25 20 -25 4 0 7 -5 6 -12 -2 -6 5 -14 15
-16 10 -2 17 2 17 12 0 9 4 16 9 16 5 0 23 13 39 30 24 23 38 29 64 27 20 -2
32 -8 30 -16 -1 -7 5 -11 15 -9 11 2 18 -3 18 -14 0 -9 4 -20 8 -24 13 -13 7
-24 -13 -24 -28 0 -15 -26 23 -45 31 -15 97 -21 97 -7 -1 18 -20 35 -50 41
-19 3 -35 11 -37 17 -5 16 38 26 54 13 6 -6 17 -8 23 -4 6 4 16 2 23 -3 7 -5
24 -12 40 -16 18 -4 27 -13 27 -27 0 -21 -10 -19 -42 9 -16 13 -18 13 -18 -1
0 -9 4 -18 10 -22 5 -3 7 -12 3 -20 -3 -8 0 -15 6 -15 20 0 11 -15 -16 -27
-15 -7 -39 -13 -54 -13 -15 0 -31 -5 -34 -11 -4 -6 -13 -8 -20 -5 -22 8 -38
-21 -37 -69 1 -50 -14 -68 -27 -33 -8 21 -10 18 -18 -22 -7 -35 -13 -45 -28
-45 -16 0 -19 6 -17 30 2 19 -3 34 -15 43 -15 11 -16 14 -3 22 8 5 10 10 4 10
-16 0 -37 -27 -30 -39 10 -15 -28 -76 -50 -80 -22 -4 -44 -31 -38 -46 3 -6 -4
-20 -16 -30 -11 -10 -20 -24 -20 -31 0 -21 -19 -26 -35 -10 -17 17 -20 36 -4
36 5 0 7 5 3 11 -3 6 -16 8 -27 5 -22 -5 -46 17 -47 45 0 28 -25 69 -42 69
-31 0 -48 12 -48 35 0 17 -8 26 -30 34 -17 5 -37 8 -45 5 -18 -7 -115 15 -115
26 0 4 -12 11 -27 15 -16 3 -36 13 -45 22 -12 11 -21 12 -37 4 -18 -10 -19 -9
-15 21 3 18 -2 55 -10 83 -8 27 -13 51 -11 54 3 2 20 -13 39 -35 34 -40 94
-77 154 -93 17 -5 32 -6 32 -1 0 4 8 6 19 3 10 -3 21 -1 24 4 3 5 -22 17 -56
27 -60 18 -170 67 -163 73 1 2 29 -6 61 -17 67 -23 119 -26 112 -7 -2 6 -16
12 -30 12 -23 0 -56 27 -57 46 0 12 53 17 82 7 23 -8 27 -14 22 -32 -5 -16 -3
-18 6 -10 6 7 30 9 56 6 44 -5 51 1 34 28 -7 11 -12 12 -20 4 -15 -15 -50 -6
-50 13 0 10 -7 14 -22 10 -13 -2 -34 -1 -48 3 -24 8 -24 8 -2 9 12 1 21 6 20
13 -2 7 11 15 27 19 17 4 25 7 19 8 -6 0 -11 7 -11 14 0 6 -4 24 -8 40 -6 23
-4 27 13 27 11 0 23 -5 25 -10 3 -6 4 -5 3 2 -2 7 3 21 12 30 8 10 12 25 8 35
-7 17 -8 17 -17 1 -14 -24 -29 -23 -29 3 0 11 3 18 8 16 4 -3 8 15 10 40 1 25
6 51 10 57 7 11 8 17 11 39 1 8 4 7 11 -3 5 -8 7 -23 4 -32 -3 -10 0 -18 6
-18 6 0 14 8 17 18 6 15 44 61 51 62 2 0 0 -16 -4 -35z m336 15 c0 -5 -4 -10
-9 -10 -6 0 -13 5 -16 10 -3 6 1 10 9 10 9 0 16 -4 16 -10z m58 -30 c11 -18 9
-21 -13 -30 -33 -13 -32 -13 -39 6 -4 10 1 22 11 30 24 18 26 17 41 -6z m-79
-56 c-16 -19 -26 -18 -31 4 -4 15 -1 18 19 14 19 -3 21 -7 12 -18z m-994 -24
c3 -5 1 -10 -4 -10 -6 0 -11 5 -11 10 0 6 2 10 4 10 3 0 8 -4 11 -10z m972 -6
c-3 -3 -12 -4 -19 -1 -8 3 -5 6 6 6 11 1 17 -2 13 -5z m54 -31 c0 -15 2 -15 7
-3 4 8 22 16 40 17 27 1 32 -2 27 -17 -4 -12 3 -25 22 -41 18 -14 21 -19 8
-14 -11 5 -35 9 -53 9 -19 0 -27 3 -20 7 20 13 -17 22 -57 15 -23 -5 -35 -3
-35 4 0 6 5 8 11 5 6 -4 13 2 16 14 6 25 33 28 34 4z m-1078 0 c-7 -2 -13 -14
-13 -24 0 -11 -4 -18 -9 -15 -15 9 0 46 18 45 10 0 11 -2 4 -6z m587 -7 c0 -9
-10 -13 -25 -12 -25 1 -31 7 -18 19 12 12 43 7 43 -7z m416 -1 c-21 -16 -32
-13 -21 4 3 6 14 11 23 11 15 -1 15 -2 -2 -15z m-579 -16 c-9 -6 -15 -14 -12
-20 4 -5 1 -9 -4 -9 -6 0 -11 4 -11 8 0 12 22 32 35 32 5 0 2 -5 -8 -11z m875
-26 c0 -21 0 -45 0 -53 -1 -8 -3 -31 -4 -52 -2 -33 -4 -36 -30 -33 -15 2 -30
0 -33 -6 -10 -15 -29 -10 -43 11 -11 18 -9 22 18 39 27 16 29 20 15 31 -18 15
-11 25 18 25 16 0 23 9 30 38 5 20 13 37 18 37 5 0 10 -17 11 -37z m-362 -4
c0 -11 -4 -18 -10 -14 -5 3 -7 12 -3 20 7 21 13 19 13 -6z m-53 -11 c-3 -8 -6
-5 -6 6 -1 11 2 17 5 13 3 -3 4 -12 1 -19z m-935 -30 c-7 -7 -12 -8 -12 -2 0
6 3 14 7 17 3 4 9 5 12 2 2 -3 -1 -11 -7 -17z m613 -8 c17 0 20 -16 6 -24 -18
-11 -36 4 -38 31 -1 22 1 24 8 10 6 -9 17 -17 24 -17z m595 -13 c0 -14 -20
-37 -32 -37 -4 0 -2 11 4 25 12 27 28 34 28 12z m-816 -216 c17 -14 22 -41 7
-41 -15 0 -31 26 -36 61 -4 26 -3 29 4 14 5 -12 16 -27 25 -34z m881 29 c3 -5
2 -10 -4 -10 -5 0 -13 5 -16 10 -3 6 -2 10 4 10 5 0 13 -4 16 -10z m-1305 -15
c-7 -9 -15 -13 -17 -11 -7 7 7 26 19 26 6 0 6 -6 -2 -15z m367 -108 c12 -26 2
-54 -16 -43 -13 8 -15 66 -3 66 5 0 14 -11 19 -23z m127 -44 c5 -42 2 -64 -8
-52 -7 9 -13 99 -6 99 4 0 10 -21 14 -47z m-164 6 c0 -6 -4 -7 -10 -4 -5 3
-10 11 -10 16 0 6 5 7 10 4 6 -3 10 -11 10 -16z m1092 -111 c-7 -7 -12 -8 -12
-2 0 6 3 14 7 17 3 4 9 5 12 2 2 -3 -1 -11 -7 -17z m-1175 -10 c27 -26 30 -40
6 -32 -13 4 -11 0 6 -15 14 -13 18 -21 10 -21 -21 1 -103 40 -96 46 3 3 14 1
24 -5 17 -9 19 -7 15 20 -5 35 4 37 35 7z m108 -38 c3 -5 2 -10 -4 -10 -5 0
-13 5 -16 10 -3 6 -2 10 4 10 5 0 13 -4 16 -10z m40 -20 c-3 -5 -11 -10 -16
-10 -6 0 -7 5 -4 10 3 6 11 10 16 10 6 0 7 -4 4 -10z m-45 -10 c11 -6 18 -16
15 -23 -11 -36 -13 -77 -5 -77 6 0 10 7 10 15 0 8 5 15 11 15 15 0 1 -42 -21
-61 -10 -8 -25 -38 -34 -65 -9 -31 -13 -37 -10 -16 5 25 1 37 -13 47 -18 13
-12 30 10 30 7 0 13 8 15 18 2 10 -3 17 -13 17 -13 0 -12 4 5 23 l21 22 -23 6
c-23 6 -22 6 5 14 32 8 33 13 10 31 -21 16 -10 18 17 4z m325 0 c3 -5 2 -10
-4 -10 -5 0 -13 5 -16 10 -3 6 -2 10 4 10 5 0 13 -4 16 -10z m-444 -19 c11
-12 8 -13 -21 -7 -45 8 -59 23 -22 22 16 -1 35 -7 43 -15z m869 9 c0 -5 -4
-10 -10 -10 -5 0 -10 5 -10 10 0 6 5 10 10 10 6 0 10 -4 10 -10z m21 -44 c-6
-7 -23 -11 -41 -8 -28 4 -29 6 -13 17 39 27 79 21 54 -9z m-862 8 c2 -2 -8 -8
-23 -13 -27 -11 -36 -23 -13 -20 31 4 67 -2 67 -11 0 -5 -18 -8 -40 -6 -23 2
-40 0 -40 -6 0 -6 -7 -4 -17 3 -9 8 -18 13 -20 12 -1 -2 -2 0 -1 5 1 4 8 6 15
4 7 -2 13 2 13 8 0 8 -12 10 -32 6 -30 -5 -31 -5 -10 6 12 6 22 15 22 19 0 7
70 1 79 -7z m-19 -88 c0 -3 -4 -8 -10 -11 -5 -3 -10 -1 -10 4 0 6 5 11 10 11
6 0 10 -2 10 -4z m658 -35 c-7 -12 -19 -21 -27 -21 -10 0 -7 8 9 25 27 29 37
27 18 -4z m-678 -141 c0 -5 -7 -10 -15 -10 -8 0 -15 5 -15 10 0 6 7 10 15 10
8 0 15 -4 15 -10z m45 -30 c11 -12 15 -26 11 -37 -7 -17 -8 -17 -18 0 -5 10
-7 21 -4 24 3 3 -2 12 -12 19 -9 7 -12 14 -6 14 6 0 19 -9 29 -20z m976 -13
c-1 -12 -15 -9 -19 4 -3 6 1 10 8 8 6 -3 11 -8 11 -12z m-1046 -35 c-9 -9 -35
8 -35 23 0 13 3 12 20 -2 11 -9 17 -19 15 -21z m1430 8 c3 -5 3 -15 -1 -21 -6
-11 -23 6 -24 24 0 10 18 9 25 -3z m-1375 -89 c-11 -22 -30 -28 -30 -11 0 6 5
10 10 10 6 0 10 8 10 18 0 10 3 22 8 26 12 13 14 -21 2 -43z m790 15 c0 -3 -4
-8 -10 -11 -5 -3 -10 -1 -10 4 0 6 5 11 10 11 6 0 10 -2 10 -4z m-190 -67 c56
-64 76 -96 67 -106 -5 -4 -12 -2 -16 5 -4 7 -19 13 -32 13 -47 1 -67 9 -65 25
0 9 -5 19 -11 21 -9 3 -13 -6 -13 -27 0 -17 4 -29 9 -25 12 7 26 -14 16 -23
-8 -8 -97 87 -112 121 -6 14 -9 28 -5 31 3 4 13 -8 22 -26 19 -40 51 -47 80
-18 16 16 19 25 11 33 -6 6 -11 15 -11 19 0 18 18 5 60 -43z m208 11 c0 -23
-4 -30 -19 -30 -21 0 -26 -16 -7 -22 8 -3 8 -9 0 -24 -11 -18 -11 -18 -13 6
-1 14 -1 36 0 48 2 20 -1 23 -21 17 -22 -7 -23 -7 -3 8 15 11 22 12 28 4 5 -9
10 -7 18 6 14 23 16 22 17 -13z m-818 -30 c0 -23 -7 -51 -14 -63 -8 -12 -17
-38 -19 -57 -2 -19 -8 -44 -14 -55 -6 -11 -13 -33 -17 -50 -4 -16 -16 -48 -27
-72 -10 -23 -19 -52 -19 -64 0 -17 -3 -19 -13 -10 -8 6 -17 7 -22 3 -4 -4 -5
11 -2 33 3 22 9 72 13 110 8 82 22 120 18 47 -3 -39 1 -53 16 -67 19 -17 20
-17 21 1 0 10 2 42 3 69 2 28 -2 56 -7 63 -7 9 -6 17 1 24 17 17 15 28 -5 28
-13 0 -14 3 -5 12 9 9 17 10 29 2 14 -9 20 -5 36 24 10 19 16 41 13 48 -3 8
-1 14 4 14 6 0 10 -18 10 -40z m-207 -240 c-7 -28 -13 -25 -13 6 0 14 4 23 9
20 5 -3 7 -15 4 -26z m-243 -14 c0 -3 -4 -8 -10 -11 -5 -3 -10 -1 -10 4 0 6 5
11 10 11 6 0 10 -2 10 -4z m271 -63 c-8 -15 -10 -15 -11 -2 0 17 10 32 18 25
2 -3 -1 -13 -7 -23z m1779 -75 c0 -4 -7 -8 -15 -8 -8 0 -15 4 -15 8 0 5 7 9
15 9 8 0 15 -4 15 -9z m-309 -21 c-10 -9 -11 -8 -5 6 3 10 9 15 12 12 3 -3 0
-11 -7 -18z m-1416 -17 c-5 -17 -10 -19 -21 -9 -19 15 -18 27 4 31 23 6 25 3
17 -22z m1455 -49 c0 -27 5 -51 11 -53 6 -2 -1 -10 -15 -17 -26 -15 -51 -7
-27 8 7 5 14 30 14 60 2 65 17 67 17 2z m-110 35 c0 -11 -19 -15 -25 -6 -3 5
1 10 9 10 9 0 16 -2 16 -4z m10 -267 c0 -6 -4 -7 -10 -4 -5 3 -10 11 -10 16 0
6 5 7 10 4 6 -3 10 -11 10 -16z m-1870 -174 c0 -25 -4 -35 -16 -35 -11 0 -14
5 -9 18 4 9 10 25 12 35 8 27 13 20 13 -18z m204 -96 c-3 -5 -10 -7 -15 -3 -5
3 -7 10 -3 15 3 5 10 7 15 3 5 -3 7 -10 3 -15z m-681 -39 c32 -33 57 -50 73
-50 13 0 24 -4 24 -10 0 -5 14 -10 30 -10 21 0 30 -5 30 -16 0 -9 7 -22 16
-29 14 -10 11 -17 -28 -58 -41 -42 -58 -50 -58 -25 0 5 5 6 10 3 14 -8 13 -3
-8 44 -10 22 -22 38 -25 34 -4 -3 -2 -12 5 -20 6 -7 8 -16 5 -20 -7 -7 -37 58
-37 80 0 7 -22 36 -50 64 -27 28 -50 54 -50 57 0 15 19 2 63 -44z m267 -29 c0
-12 -20 -25 -27 -18 -7 7 6 27 18 27 5 0 9 -4 9 -9z m245 -61 c1 -13 -5 -20
-17 -20 -21 0 -22 4 -6 30 14 22 21 19 23 -10z m-333 -82 c-7 -7 -12 -8 -12
-2 0 6 3 14 7 17 3 4 9 5 12 2 2 -3 -1 -11 -7 -17z m32 -2 c-3 -9 -10 -16 -15
-16 -5 0 -4 9 3 20 14 22 21 20 12 -4z m-527 -38 c-3 -8 -6 -5 -6 6 -1 11 2
17 5 13 3 -3 4 -12 1 -19z m495 -11 c-7 -8 -9 -17 -5 -20 3 -4 1 -7 -5 -7 -15
0 -15 23 0 38 16 16 24 6 10 -11z m-525 -2 c0 -8 -4 -12 -9 -9 -4 3 -8 9 -8
15 0 5 4 9 8 9 5 0 9 -7 9 -15z m143 -26 c0 -13 -70 -42 -79 -33 -3 4 0 9 6
11 7 3 23 13 35 23 23 18 38 18 38 -1z m-463 -15 c-3 -3 -12 -4 -19 -1 -8 3
-5 6 6 6 11 1 17 -2 13 -5z m3641 -136 c14 -14 16 -38 4 -38 -5 0 -14 11 -20
25 -12 26 -4 33 16 13z m-3074 -84 c3 -8 2 -12 -4 -9 -6 3 -10 10 -10 16 0 14
7 11 14 -7z"/>
<path d="M3560 4115 c0 -28 -4 -35 -20 -35 -11 0 -20 -7 -20 -15 0 -18 19 -19
41 -2 16 13 23 87 8 87 -5 0 -9 -16 -9 -35z"/>
<path d="M3689 4103 c-1 -5 0 -16 1 -27 1 -10 -3 -15 -8 -12 -6 4 -13 2 -16
-3 -4 -5 -1 -13 5 -17 14 -8 62 42 54 56 -7 12 -34 13 -36 3z"/>
<path d="M3500 4024 l-25 -13 27 -1 c15 0 29 4 33 9 10 17 -10 20 -35 5z"/>
<path d="M3526 3921 c-3 -5 1 -11 9 -15 15 -6 29 7 18 18 -9 9 -21 8 -27 -3z"/>
<path d="M3593 3843 c9 -2 23 -2 30 0 6 3 -1 5 -18 5 -16 0 -22 -2 -12 -5z"/>
<path d="M3993 3795 c-15 -17 -17 -39 -3 -30 6 4 6 -3 0 -21 -12 -31 -9 -37
13 -28 11 4 15 19 15 50 0 46 -5 52 -25 29z"/>
<path d="M3788 3667 c-6 -16 1 -37 13 -37 12 0 12 37 0 44 -5 3 -11 0 -13 -7z"/>
<path d="M3795 3610 c-3 -5 -1 -10 4 -10 6 0 11 5 11 10 0 6 -2 10 -4 10 -3 0
-8 -4 -11 -10z"/>
<path d="M3768 3563 c7 -3 16 -2 19 1 4 3 -2 6 -13 5 -11 0 -14 -3 -6 -6z"/>
<path d="M2942 2745 c0 -16 2 -22 5 -12 2 9 2 23 0 30 -3 6 -5 -1 -5 -18z"/>
<path d="M2932 2690 c0 -14 2 -19 5 -12 2 6 2 18 0 25 -3 6 -5 1 -5 -13z"/>
<path d="M3790 5170 c-12 -8 -10 -10 8 -10 13 0 20 4 17 10 -7 12 -6 12 -25 0z"/>
<path d="M3880 5160 c0 -5 5 -10 11 -10 5 0 7 5 4 10 -3 6 -8 10 -11 10 -2 0
-4 -4 -4 -10z"/>
<path d="M3829 5155 c-1 -5 -1 -13 0 -17 0 -5 -3 -8 -9 -8 -5 0 -10 -4 -10
-10 0 -12 37 -13 44 -1 3 4 -1 17 -9 27 -8 10 -15 15 -16 9z"/>
<path d="M6090 4830 c0 -5 5 -10 11 -10 5 0 7 5 4 10 -3 6 -8 10 -11 10 -2 0
-4 -4 -4 -10z"/>
<path d="M3902 4608 c-16 -16 -15 -31 1 -25 6 2 20 -3 31 -12 18 -16 18 -15 2
17 -19 37 -18 36 -34 20z"/>
<path d="M4525 4600 c-3 -5 -1 -10 4 -10 6 0 11 5 11 10 0 6 -2 10 -4 10 -3 0
-8 -4 -11 -10z"/>
<path d="M4550 4570 c-9 -6 -10 -10 -3 -10 6 0 15 5 18 10 8 12 4 12 -15 0z"/>
<path d="M3955 4530 c3 -5 10 -10 16 -10 5 0 9 5 9 10 0 6 -7 10 -16 10 -8 0
-12 -4 -9 -10z"/>
<path d="M5885 4520 c-4 -6 -1 -17 5 -26 10 -11 16 -12 26 -3 8 6 14 17 13 23
0 7 -2 6 -6 -1 -2 -7 -9 -13 -15 -13 -6 0 -8 7 -4 15 6 17 -9 21 -19 5z"/>
<path d="M4496 4463 c-11 -11 -6 -23 9 -23 8 0 15 4 15 9 0 13 -16 22 -24 14z"/>
<path d="M5105 4411 c-3 -5 -1 -12 5 -16 5 -3 10 1 10 9 0 18 -6 21 -15 7z"/>
<path d="M4968 4263 c6 -2 18 -2 25 0 6 3 1 5 -13 5 -14 0 -19 -2 -12 -5z"/>
<path d="M5020 4020 c0 -5 4 -10 9 -10 6 0 13 5 16 10 3 6 -1 10 -9 10 -9 0
-16 -4 -16 -10z"/>
<path d="M4680 3934 c0 -8 5 -12 10 -9 6 4 8 11 5 16 -9 14 -15 11 -15 -7z"/>
<path d="M4959 3708 c-6 -15 -5 -66 2 -62 5 3 9 11 9 19 0 7 7 15 15 17 13 2
12 6 -5 16 -11 7 -20 11 -21 10z"/>
<path d="M5066 3617 c3 -10 9 -15 12 -12 3 3 0 11 -7 18 -10 9 -11 8 -5 -6z"/>
<path d="M5007 3613 c-9 -15 17 -23 34 -11 11 8 11 9 -3 5 -9 -3 -18 -1 -21 6
-2 8 -5 8 -10 0z"/>
<path d="M5000 3582 c0 -5 7 -15 15 -22 8 -7 15 -9 15 -6 0 4 -7 14 -15 22 -8
9 -15 11 -15 6z"/>
<path d="M5050 3490 c0 -5 5 -10 10 -10 6 0 10 5 10 10 0 6 -4 10 -10 10 -5 0
-10 -4 -10 -10z"/>
<path d="M2366 3353 c-3 -3 -3 -10 0 -14 7 -12 34 -11 34 0 0 11 -26 22 -34
14z"/>
<path d="M2382 3259 c2 -6 8 -10 13 -10 5 0 11 4 13 10 2 6 -4 11 -13 11 -9 0
-15 -5 -13 -11z"/>
<path d="M2671 3174 c0 -11 3 -14 6 -6 3 7 2 16 -1 19 -3 4 -6 -2 -5 -13z"/>
<path d="M4668 3083 c7 -3 16 -2 19 1 4 3 -2 6 -13 5 -11 0 -14 -3 -6 -6z"/>
<path d="M4667 3059 c7 -7 15 -10 18 -7 3 3 -2 9 -12 12 -14 6 -15 5 -6 -5z"/>
<path d="M1761 3034 c0 -11 3 -14 6 -6 3 7 2 16 -1 19 -3 4 -6 -2 -5 -13z"/>
<path d="M1920 2980 c0 -5 7 -10 16 -10 8 0 12 5 9 10 -3 6 -10 10 -16 10 -5
0 -9 -4 -9 -10z"/>
<path d="M1880 2940 c0 -5 5 -10 11 -10 5 0 7 5 4 10 -3 6 -8 10 -11 10 -2 0
-4 -4 -4 -10z"/>
<path d="M4735 2870 c-3 -5 1 -10 10 -10 9 0 13 5 10 10 -3 6 -8 10 -10 10 -2
0 -7 -4 -10 -10z"/>
<path d="M4000 2848 c0 -7 -7 -26 -15 -42 -13 -25 -13 -31 -2 -45 22 -25 28
-52 16 -67 -6 -8 -8 -21 -5 -31 6 -14 9 -14 22 6 12 16 14 34 9 71 -4 28 -11
50 -16 50 -15 0 -10 22 8 35 9 7 13 17 9 23 -10 16 -26 15 -26 0z"/>
<path d="M4463 2812 c-15 -9 -5 -25 25 -41 25 -13 46 -6 38 14 -3 8 2 11 15 8
13 -4 19 0 19 11 0 19 -23 21 -50 4 -16 -10 -22 -10 -28 -1 -4 7 -13 9 -19 5z"/>
<path d="M4586 2791 c-4 -7 -5 -15 -2 -18 9 -9 19 4 14 18 -4 11 -6 11 -12 0z"/>
<path d="M5418 2768 c5 -5 16 -8 23 -6 8 3 3 7 -10 11 -17 4 -21 3 -13 -5z"/>
<path d="M4360 2751 c0 -17 27 -37 37 -27 6 6 -20 46 -29 46 -5 0 -8 -9 -8
-19z"/>
<path d="M3950 2705 c-19 -23 -9 -25 25 -4 26 17 27 19 9 19 -12 0 -27 -7 -34
-15z"/>
<path d="M4360 2709 c0 -5 5 -7 10 -4 6 3 10 8 10 11 0 2 -4 4 -10 4 -5 0 -10
-5 -10 -11z"/>
<path d="M3782 2670 c-42 -10 -54 -22 -58 -55 -2 -21 2 -25 22 -25 24 0 32 14
14 25 -21 13 1 23 40 19 38 -3 52 7 29 22 -8 4 -7 9 2 15 18 11 -1 11 -49 -1z"/>
<path d="M5040 2653 c0 -5 5 -15 10 -23 7 -11 12 -12 21 -3 6 6 8 16 5 22 -8
12 -36 15 -36 4z"/>
<path d="M4864 2606 c-8 -22 3 -33 18 -18 9 9 9 15 0 24 -9 9 -13 7 -18 -6z"/>
<path d="M3531 2594 c0 -11 3 -14 6 -6 3 7 2 16 -1 19 -3 4 -6 -2 -5 -13z"/>
<path d="M1678 2569 c-29 -11 -61 -56 -72 -102 -9 -40 25 -112 63 -131 50 -26
115 -21 153 13 27 24 32 36 35 87 4 50 1 63 -19 87 -40 49 -102 67 -160 46z"/>
<path d="M3080 2558 c0 -4 6 -8 14 -8 8 0 17 4 20 8 2 4 -4 8 -15 8 -10 0 -19
-4 -19 -8z"/>
<path d="M3520 2554 c0 -8 5 -12 10 -9 6 4 8 11 5 16 -9 14 -15 11 -15 -7z"/>
<path d="M3631 2546 c-7 -9 -17 -13 -22 -10 -5 3 -9 -2 -9 -10 0 -9 -8 -16
-18 -16 -12 0 -25 -15 -36 -41 -13 -28 -27 -44 -47 -51 -23 -8 -27 -13 -19
-23 33 -39 0 -168 -56 -220 -15 -14 -25 -28 -22 -31 18 -17 118 127 118 170 0
7 7 27 15 42 8 16 15 39 15 50 0 13 14 33 35 48 36 28 69 79 63 98 -2 6 -9 3
-17 -6z"/>
<path d="M2795 2520 c3 -5 8 -10 11 -10 2 0 4 5 4 10 0 6 -5 10 -11 10 -5 0
-7 -4 -4 -10z"/>
<path d="M3170 2520 c0 -5 5 -10 10 -10 6 0 10 5 10 10 0 6 -4 10 -10 10 -5 0
-10 -4 -10 -10z"/>
<path d="M4100 2496 c0 -9 5 -16 10 -16 6 0 10 4 10 9 0 6 -4 13 -10 16 -5 3
-10 -1 -10 -9z"/>
<path d="M2927 2493 c-13 -12 -7 -21 18 -25 14 -3 25 -1 25 3 0 5 8 9 18 10
11 1 9 4 -8 9 -33 11 -45 11 -53 3z"/>
<path d="M3022 2472 c-29 -9 -31 -24 -3 -37 25 -11 27 -28 6 -45 -17 -14 -30
-7 -30 18 0 26 -41 27 -55 3 -9 -17 -8 -21 5 -21 8 0 15 -4 15 -10 0 -5 7 -7
15 -4 8 3 26 -4 41 -15 38 -30 45 -26 38 22 -4 30 -3 38 5 27 8 -12 13 -12 23
-2 14 14 42 16 33 2 -3 -6 5 -10 19 -10 18 0 24 -4 20 -15 -7 -18 0 -19 26 -5
15 8 20 6 25 -10 9 -29 35 -25 35 4 0 32 -35 56 -82 56 -21 0 -38 3 -38 8 0 4
-14 7 -32 7 -34 0 -50 21 -21 28 16 4 15 5 -2 5 -11 0 -30 -3 -43 -6z"/>
<path d="M3280 2355 c0 -9 9 -15 25 -15 16 0 25 6 25 15 0 9 -9 15 -25 15 -16
0 -25 -6 -25 -15z"/>
<path d="M3088 2346 c-23 -17 -23 -26 -1 -26 15 0 14 -2 -3 -15 -18 -15 -17
-16 14 -10 18 4 38 2 45 -3 7 -5 22 -13 35 -16 19 -6 22 -4 22 17 0 18 -7 27
-26 31 -15 4 -33 14 -41 21 -18 18 -23 18 -45 1z"/>
<path d="M4790 2308 c5 -18 12 -43 15 -55 9 -29 35 -31 28 -3 -3 11 -9 20 -14
20 -4 0 -5 16 -2 35 5 30 3 35 -15 35 -18 0 -19 -4 -12 -32z"/>
<path d="M715 2250 c-3 -5 -1 -10 4 -10 6 0 11 5 11 10 0 6 -2 10 -4 10 -3 0
-8 -4 -11 -10z"/>
<path d="M3270 2230 c-1 -8 -2 -23 -1 -32 2 -15 -5 -17 -39 -14 -22 2 -46 10
-53 18 -13 17 -77 32 -77 19 0 -5 18 -20 40 -35 22 -14 40 -32 40 -39 0 -17
51 -38 78 -31 13 4 22 2 22 -5 0 -6 4 -11 9 -11 15 0 33 66 25 94 -6 26 10 38
19 14 4 -8 6 -7 6 4 1 18 -17 28 -36 20 -7 -2 -13 -12 -14 -21 -1 -9 -4 -6 -9
9 -4 14 -9 18 -10 10z"/>
<path d="M4861 2220 c0 -14 4 -34 9 -45 8 -18 9 -18 9 5 0 14 -4 34 -9 45 -8
18 -9 18 -9 -5z"/>
<path d="M3725 2210 c3 -5 8 -10 11 -10 2 0 4 5 4 10 0 6 -5 10 -11 10 -5 0
-7 -4 -4 -10z"/>
<path d="M4270 2170 c0 -5 5 -10 10 -10 6 0 10 5 10 10 0 6 -4 10 -10 10 -5 0
-10 -4 -10 -10z"/>
<path d="M3321 2117 c-7 -10 -10 -21 -8 -23 9 -9 35 8 40 25 6 24 -17 23 -32
-2z"/>
<path d="M3165 2080 c4 -6 11 -8 16 -5 14 9 11 15 -7 15 -8 0 -12 -5 -9 -10z"/>
<path d="M4904 2027 c3 -10 6 -23 6 -28 0 -5 5 -9 10 -9 14 0 12 13 -6 36 -14
17 -15 17 -10 1z"/>
<path d="M4936 1984 c-4 -9 -4 -19 -1 -22 3 -3 5 1 5 8 0 9 5 7 14 -6 8 -10
17 -16 20 -13 3 3 -2 16 -13 28 -17 19 -19 20 -25 5z"/>
<path d="M2380 1955 c0 -8 4 -15 9 -15 5 0 11 7 15 15 3 9 0 15 -9 15 -8 0
-15 -7 -15 -15z"/>
<path d="M3103 1930 c-13 -5 -23 -16 -23 -25 0 -8 -7 -15 -16 -15 -13 0 -14
-3 -4 -15 10 -12 9 -16 -4 -21 -9 -3 -13 -11 -9 -18 3 -6 3 -8 -2 -4 -4 4 -27
-9 -51 -29 -24 -19 -44 -31 -44 -25 0 6 6 15 13 19 8 4 16 16 20 26 5 14 1 17
-24 17 -17 0 -40 5 -52 11 -16 9 -22 9 -25 0 -2 -6 -8 -9 -13 -5 -5 3 -9 -2
-9 -12 0 -9 -8 -23 -17 -30 -17 -13 -17 -15 2 -29 11 -8 25 -19 31 -24 7 -5
17 -5 25 0 8 5 21 9 29 9 11 0 10 -5 -6 -20 -18 -18 -24 -19 -54 -9 -19 7 -38
17 -42 23 -8 12 -22 -38 -15 -56 2 -7 -1 -27 -8 -45 -13 -31 -13 -32 13 -30
19 1 30 -4 37 -20 5 -13 13 -23 17 -23 5 0 8 -13 8 -30 0 -30 -13 -40 -25 -20
-4 6 -1 18 7 27 11 15 11 16 -7 9 -11 -5 -28 -11 -37 -13 -10 -3 -18 -10 -18
-15 0 -5 -4 -6 -10 -3 -6 4 -10 -5 -10 -20 0 -17 4 -24 11 -19 9 5 10 -1 4
-22 -20 -81 7 -327 35 -309 4 2 12 -7 18 -20 7 -14 18 -25 27 -25 13 0 13 -3
3 -19 -10 -17 -8 -23 15 -45 15 -14 27 -32 27 -41 0 -18 -12 -19 -28 -3 -9 9
-12 9 -12 -2 0 -8 -3 -26 -7 -39 -4 -16 -2 -22 4 -18 6 4 13 -3 16 -14 5 -18
2 -20 -21 -14 -38 9 -53 33 -46 71 3 18 1 41 -5 51 -9 16 -10 16 -11 -7 -1
-14 -3 -43 -4 -64 -4 -54 34 -93 85 -88 3 0 3 -21 -1 -47 -5 -43 -4 -47 15
-47 18 1 20 -6 23 -61 2 -35 7 -63 11 -63 5 0 11 -9 14 -20 4 -14 14 -20 35
-20 36 0 53 29 22 37 -24 6 -28 58 -5 70 8 5 19 23 24 41 8 28 7 32 -10 32
-23 0 -25 18 -4 27 9 3 22 -2 29 -12 17 -23 29 -5 20 30 -7 29 -10 30 -31 10
-17 -17 -49 -16 -46 2 1 6 -5 17 -13 24 -13 10 -17 10 -24 -1 -5 -8 -12 -11
-16 -7 -11 10 16 36 32 30 8 -3 17 5 23 20 13 33 53 60 76 51 14 -6 16 -3 11
14 -5 16 2 30 28 58 40 43 63 103 71 184 3 30 8 69 11 86 5 25 0 37 -21 58
-24 24 -27 32 -20 69 4 23 7 56 7 72 0 17 3 22 5 13 2 -10 9 -18 15 -18 5 0 8
7 4 15 -3 8 -9 63 -13 122 -5 76 -9 99 -14 78 -5 -19 -7 0 -7 53 1 64 3 80 13
72 7 -6 11 -26 9 -45 -1 -19 1 -35 6 -35 11 0 48 78 56 118 6 27 4 32 -13 32
-11 0 -36 -11 -56 -24 -43 -29 -77 -41 -77 -27 0 6 5 11 10 11 6 0 10 7 10 15
0 9 9 15 25 15 14 0 25 5 25 10 0 12 -17 12 -47 0z m-18 -140 c-3 -5 -15 -10
-26 -10 -10 0 -19 5 -19 10 0 6 12 10 26 10 14 0 23 -4 19 -10z m62 -167 c-2
-16 -4 -3 -4 27 0 30 2 43 4 28 2 -16 2 -40 0 -55z m-59 16 c-2 -6 -8 -10 -13
-10 -5 0 -11 4 -13 10 -2 6 4 11 13 11 9 0 15 -5 13 -11z m-291 -231 c-3 -7
-5 -2 -5 12 0 14 2 19 5 13 2 -7 2 -19 0 -25z m207 -82 c2 -54 -2 -60 -38 -46
-30 11 -33 27 -8 47 13 11 14 16 4 20 -10 4 -9 8 5 19 27 20 35 13 37 -40z
m-127 -18 c-3 -7 -5 -2 -5 12 0 14 2 19 5 13 2 -7 2 -19 0 -25z m290 0 c-3 -7
-5 -2 -5 12 0 14 2 19 5 13 2 -7 2 -19 0 -25z m-100 -70 c-3 -8 -6 -5 -6 6 -1
11 2 17 5 13 3 -3 4 -12 1 -19z m85 -60 c-7 -7 -12 -8 -12 -2 0 14 12 26 19
19 2 -3 -1 -11 -7 -17z"/>
<path d="M3655 1930 c-3 -5 -2 -10 4 -10 5 0 13 5 16 10 3 6 2 10 -4 10 -5 0
-13 -4 -16 -10z"/>
<path d="M4910 1930 c0 -5 5 -10 11 -10 5 0 7 5 4 10 -3 6 -8 10 -11 10 -2 0
-4 -4 -4 -10z"/>
<path d="M2685 1880 c-3 -5 -1 -10 4 -10 6 0 11 5 11 10 0 6 -2 10 -4 10 -3 0
-8 -4 -11 -10z"/>
<path d="M5040 1855 c0 -5 5 -17 10 -25 5 -8 10 -10 10 -5 0 6 -5 17 -10 25
-5 8 -10 11 -10 5z"/>
<path d="M2540 1835 c0 -11 32 -34 48 -35 6 0 12 7 12 15 0 8 -6 15 -14 15 -8
0 -21 3 -30 6 -9 3 -16 3 -16 -1z"/>
<path d="M2635 1820 c3 -5 8 -10 11 -10 2 0 4 5 4 10 0 6 -5 10 -11 10 -5 0
-7 -4 -4 -10z"/>
<path d="M2678 1803 c7 -3 16 -2 19 1 4 3 -2 6 -13 5 -11 0 -14 -3 -6 -6z"/>
<path d="M2216 1775 c-4 -10 1 -15 16 -15 17 0 18 2 8 15 -7 8 -14 15 -15 15
-2 0 -5 -7 -9 -15z"/>
<path d="M2460 1760 c0 -5 5 -10 10 -10 6 0 10 5 10 10 0 6 -4 10 -10 10 -5 0
-10 -4 -10 -10z"/>
<path d="M5072 1716 c2 -20 6 -36 11 -36 11 0 9 58 -3 65 -6 4 -9 -8 -8 -29z"/>
<path d="M2514 1714 c3 -9 6 -18 6 -20 0 -2 7 -4 15 -4 13 0 13 3 3 20 -15 24
-33 27 -24 4z"/>
<path d="M2641 1714 c0 -11 3 -14 6 -6 3 7 2 16 -1 19 -3 4 -6 -2 -5 -13z"/>
<path d="M4640 1709 c0 -5 5 -7 10 -4 6 3 10 8 10 11 0 2 -4 4 -10 4 -5 0 -10
-5 -10 -11z"/>
<path d="M5040 1700 c0 -11 5 -20 10 -20 6 0 10 9 10 20 0 11 -4 20 -10 20 -5
0 -10 -9 -10 -20z"/>
<path d="M2386 1592 c-3 -6 -1 -14 5 -17 15 -10 25 3 12 16 -7 7 -13 7 -17 1z"/>
<path d="M4455 1521 c3 -6 14 -9 25 -8 24 2 15 17 -11 17 -11 0 -18 -4 -14 -9z"/>
<path d="M2084 1494 c3 -8 6 -20 6 -25 0 -5 5 -9 10 -9 16 0 11 37 -6 44 -12
5 -15 2 -10 -10z"/>
<path d="M2265 1450 c3 -5 8 -10 11 -10 2 0 4 5 4 10 0 6 -5 10 -11 10 -5 0
-7 -4 -4 -10z"/>
<path d="M4475 1432 c2 -9 4 -20 4 -24 1 -5 10 -8 22 -8 27 0 22 30 -8 41 -17
6 -20 4 -18 -9z"/>
<path d="M4600 1420 c0 -5 7 -10 16 -10 8 0 12 5 9 10 -3 6 -10 10 -16 10 -5
0 -9 -4 -9 -10z"/>
<path d="M2235 1410 c-3 -5 1 -10 9 -10 9 0 16 5 16 10 0 6 -4 10 -9 10 -6 0
-13 -4 -16 -10z"/>
<path d="M2390 1405 c0 -20 17 -28 23 -11 3 8 -1 17 -9 20 -8 3 -14 -1 -14 -9z"/>
<path d="M2280 1389 c0 -5 5 -7 10 -4 6 3 10 8 10 11 0 2 -4 4 -10 4 -5 0 -10
-5 -10 -11z"/>
<path d="M4920 1385 c0 -8 5 -15 10 -15 6 0 10 7 10 15 0 8 -4 15 -10 15 -5 0
-10 -7 -10 -15z"/>
<path d="M4587 1384 c-14 -14 -7 -25 13 -22 12 2 21 8 21 13 0 12 -24 18 -34
9z"/>
<path d="M2600 1320 c0 -5 5 -10 11 -10 5 0 7 5 4 10 -3 6 -8 10 -11 10 -2 0
-4 -4 -4 -10z"/>
<path d="M2302 1258 c2 -12 11 -24 21 -26 14 -3 18 1 15 20 -2 12 -11 24 -21
26 -14 3 -18 -1 -15 -20z"/>
<path d="M2125 1240 c3 -5 10 -10 16 -10 5 0 9 5 9 10 0 6 -7 10 -16 10 -8 0
-12 -4 -9 -10z"/>
<path d="M2400 1031 c0 -6 5 -13 10 -16 6 -3 10 1 10 9 0 9 -4 16 -10 16 -5 0
-10 -4 -10 -9z"/>
<path d="M3101 1024 c0 -11 3 -14 6 -6 3 7 2 16 -1 19 -3 4 -6 -2 -5 -13z"/>
<path d="M3091 974 c0 -11 3 -14 6 -6 3 7 2 16 -1 19 -3 4 -6 -2 -5 -13z"/>
<path d="M3067 897 c-3 -8 -1 -20 4 -28 6 -10 9 -7 9 14 0 29 -5 35 -13 14z"/>
<path d="M4750 853 c0 -11 3 -14 8 -7 4 6 14 14 22 17 10 4 8 6 -7 6 -16 1
-23 -5 -23 -16z"/>
<path d="M2854 793 c3 -21 8 -57 11 -81 3 -26 2 -41 -4 -38 -5 3 -7 -3 -4 -15
4 -16 8 -17 14 -7 7 10 9 10 10 -2 0 -8 5 -4 9 10 13 40 11 50 -7 51 -12 0
-13 2 -5 6 10 4 10 8 1 19 -6 7 -9 32 -7 54 2 28 0 40 -9 40 -9 0 -12 -11 -9
-37z"/>
<path d="M3047 793 c-4 -3 -7 -13 -7 -20 0 -12 3 -12 15 1 8 8 15 17 15 20 0
8 -15 7 -23 -1z"/>
<path d="M2888 753 c7 -3 16 -2 19 1 4 3 -2 6 -13 5 -11 0 -14 -3 -6 -6z"/>
<path d="M3040 708 c0 -12 3 -18 7 -14 11 10 12 36 2 36 -5 0 -9 -10 -9 -22z"/>
<path d="M2815 681 c-3 -5 -1 -12 5 -16 5 -3 10 1 10 9 0 18 -6 21 -15 7z"/>
<path d="M3043 630 c0 -25 2 -35 4 -22 2 12 2 32 0 45 -2 12 -4 2 -4 -23z"/>
<path d="M2916 611 c-4 -7 -5 -15 -2 -18 9 -9 19 4 14 18 -4 11 -6 11 -12 0z"/>
<path d="M2975 590 c3 -5 3 -15 -1 -21 -5 -8 -9 -8 -14 1 -6 9 -10 6 -15 -9
-7 -22 -25 -29 -25 -10 0 6 -11 1 -24 -12 -25 -24 -25 -49 -1 -29 8 7 19 9 25
5 6 -4 17 -1 25 5 16 13 45 7 45 -9 0 -5 -10 -11 -22 -13 -13 -2 -23 -10 -23
-18 0 -8 -4 -19 -10 -23 -6 -6 -6 -10 3 -14 22 -9 2 -23 -24 -17 -17 4 -26 1
-30 -11 -5 -13 -9 -14 -15 -4 -4 8 -11 10 -15 6 -4 -4 -2 -13 4 -19 9 -9 16
-7 31 6 12 11 25 15 32 10 7 -4 23 -8 36 -9 13 0 33 -11 46 -24 l22 -23 -31 4
c-25 3 -31 1 -26 -11 3 -8 1 -12 -5 -8 -6 4 -14 0 -17 -8 -4 -11 0 -15 12 -13
12 2 18 -4 19 -22 l2 -25 -7 25 c-5 17 -10 21 -16 12 -10 -17 -26 -15 -26 4 0
8 -5 12 -10 9 -7 -4 -7 -13 0 -25 6 -11 10 -32 8 -47 -2 -42 11 -73 31 -73 21
0 44 -23 34 -33 -3 -4 -1 -7 6 -7 15 0 5 -41 -13 -53 -8 -5 -6 -12 7 -21 9 -7
17 -18 17 -25 0 -6 12 -11 26 -11 16 0 24 5 21 13 -2 6 -9 11 -15 10 -6 -2 -9
4 -6 12 4 8 10 15 14 15 13 0 18 38 7 49 -8 8 -8 11 1 11 7 0 17 12 22 26 6
14 14 22 20 19 6 -4 10 6 10 24 0 23 -4 29 -15 25 -10 -4 -15 0 -15 12 0 16
-2 17 -10 4 -7 -12 -10 -8 -11 15 0 21 -2 25 -7 13 -5 -12 -12 -14 -21 -9 -11
7 -9 13 9 31 18 18 20 24 9 31 -10 6 -8 9 10 9 14 0 21 5 18 13 -31 78 -40 97
-48 97 -13 0 -11 27 3 50 10 16 10 24 0 40 -6 11 -12 29 -12 40 0 25 -17 27
-23 3 -4 -17 -5 -17 -6 0 0 9 -6 17 -12 17 -5 0 -7 -4 -4 -10z m95 -392 c0 -4
-7 -8 -15 -8 -8 0 -15 4 -15 8 0 5 7 9 15 9 8 0 15 -4 15 -9z"/>
<path d="M2876 464 c-3 -9 -6 -21 -6 -27 0 -16 23 9 26 28 3 20 -12 19 -20 -1z"/>
<path d="M2840 341 c0 -5 5 -13 10 -16 6 -3 10 -2 10 4 0 5 -4 13 -10 16 -5 3
-10 2 -10 -4z"/>
<path d="M2797 312 c-10 -11 -14 -26 -10 -40 6 -24 -6 -29 -25 -10 -16 16 -41
-18 -34 -46 7 -28 22 -37 44 -25 10 6 24 7 30 3 8 -5 9 0 5 17 -5 17 0 31 19
50 23 24 24 29 12 48 -16 26 -20 26 -41 3z"/>
<path d="M2506 303 c-3 -10 -12 -37 -20 -60 -21 -63 -2 -131 32 -118 9 3 18 1
22 -5 4 -6 21 -3 49 11 24 11 40 23 37 26 -3 3 1 11 9 17 7 6 17 27 20 47 6
33 4 37 -20 43 -14 4 -30 4 -34 2 -4 -3 -25 -1 -45 5 -30 8 -37 14 -33 30 6
24 -8 25 -17 2z m68 -80 c4 -9 -3 -13 -20 -13 -17 0 -27 -8 -34 -25 -5 -14
-12 -25 -15 -25 -8 0 6 52 17 67 12 15 46 13 52 -4z"/>
</g>
</svg>
